<svg xmlns="http://www.w3.org/2000/svg" viewBox="0 0 47.04 49.99">
    <defs>
        <style>.cls-1{fill:#c4c4c4;}.cls-2{fill:#949494;}</style>
    </defs>
    <title>Asset 1</title>
    <g id="Layer_2" data-name="Layer 2">
        <g id="Layer_1-2" data-name="Layer 1">
            <path class="cls-1"
                  d="M23.52,49.49a4.1,4.1,0,0,1-4-3,3.21,3.21,0,0,0-3.08-2.36,3.12,3.12,0,0,0-1.94.68,4.1,4.1,0,0,1-2.55.92,4.29,4.29,0,0,1-4-5.75,3.34,3.34,0,0,0-.43-3,3.13,3.13,0,0,0-2.58-1.35H4.7a4.15,4.15,0,0,1-4-3,4.27,4.27,0,0,1,1.63-4.86A3.3,3.3,0,0,0,3.75,25a3.31,3.31,0,0,0-1.41-2.72A4.26,4.26,0,0,1,.71,17.42a4.15,4.15,0,0,1,4-3h.14A3.2,3.2,0,0,0,7.51,13.1a3.35,3.35,0,0,0,.43-3,4.29,4.29,0,0,1,4-5.75,4.1,4.1,0,0,1,2.55.92,3.12,3.12,0,0,0,1.94.68,3.21,3.21,0,0,0,3.08-2.36,4.19,4.19,0,0,1,8.06,0A3.21,3.21,0,0,0,30.64,5.9a3.16,3.16,0,0,0,1.94-.68,4.07,4.07,0,0,1,2.55-.92,4.29,4.29,0,0,1,4,5.75,3.29,3.29,0,0,0,.43,3,3.13,3.13,0,0,0,2.58,1.35h.22a4.15,4.15,0,0,1,4,3,4.25,4.25,0,0,1-1.62,4.85,3.32,3.32,0,0,0,0,5.44,4.27,4.27,0,0,1,1.62,4.86,4.14,4.14,0,0,1-4,3h-.13a3.16,3.16,0,0,0-2.67,1.35,3.28,3.28,0,0,0-.43,3,4.29,4.29,0,0,1-4,5.75,4.07,4.07,0,0,1-2.55-.92,3.16,3.16,0,0,0-1.94-.68,3.21,3.21,0,0,0-3.09,2.36A4.1,4.1,0,0,1,23.52,49.49Zm.12-28.14a3.7,3.7,0,1,0,3.61,3.7A3.65,3.65,0,0,0,23.64,21.35Z"/>
            <path class="cls-2"
                  d="M23.52,1a3.62,3.62,0,0,1,3.55,2.67h0A3.73,3.73,0,0,0,30.64,6.4a3.63,3.63,0,0,0,2.25-.79h0a3.57,3.57,0,0,1,2.24-.81,3.79,3.79,0,0,1,3.5,5.08h0A3.79,3.79,0,0,0,42.12,15h.22a3.81,3.81,0,0,1,2.08,6.93h0a3.81,3.81,0,0,0,0,6.25h0A3.81,3.81,0,0,1,42.34,35h-.22a3.78,3.78,0,0,0-3.49,5.06h0a3.8,3.8,0,0,1-3.5,5.09,3.59,3.59,0,0,1-2.24-.81h0a3.63,3.63,0,0,0-2.25-.79,3.72,3.72,0,0,0-3.57,2.72h0a3.69,3.69,0,0,1-7.1,0h0a3.71,3.71,0,0,0-3.56-2.72,3.59,3.59,0,0,0-2.25.79h0a3.59,3.59,0,0,1-2.24.81A3.8,3.8,0,0,1,8.41,40.1h0A3.78,3.78,0,0,0,4.93,35H4.7a3.81,3.81,0,0,1-2.08-6.92h0a3.81,3.81,0,0,0,0-6.25h0A3.81,3.81,0,0,1,4.7,14.94h.23A3.78,3.78,0,0,0,8.41,9.88h0A3.79,3.79,0,0,1,11.92,4.8a3.59,3.59,0,0,1,2.24.81h0a3.59,3.59,0,0,0,2.25.79A3.71,3.71,0,0,0,20,3.67h0A3.62,3.62,0,0,1,23.52,1m.12,28.25a4.2,4.2,0,1,0-4.1-4.2,4.16,4.16,0,0,0,4.1,4.2M23.52,0A4.59,4.59,0,0,0,19,3.4a2.72,2.72,0,0,1-2.6,2,2.58,2.58,0,0,1-1.63-.58,4.59,4.59,0,0,0-2.86-1h0a4.79,4.79,0,0,0-4.44,6.41,2.86,2.86,0,0,1-.37,2.6A2.67,2.67,0,0,1,4.93,14H4.7A4.64,4.64,0,0,0,.24,17.27a4.74,4.74,0,0,0,1.81,5.41A2.8,2.8,0,0,1,3.25,25a2.78,2.78,0,0,1-1.2,2.31A4.76,4.76,0,0,0,.24,32.72,4.63,4.63,0,0,0,4.7,36h.23A2.64,2.64,0,0,1,7.1,37.18a2.85,2.85,0,0,1,.37,2.59,4.79,4.79,0,0,0,4.45,6.42,4.61,4.61,0,0,0,2.86-1,2.63,2.63,0,0,1,1.63-.57,2.71,2.71,0,0,1,2.6,2,4.7,4.7,0,0,0,9,0,2.69,2.69,0,0,1,2.6-2,2.65,2.65,0,0,1,1.63.57,4.56,4.56,0,0,0,2.86,1,4.8,4.8,0,0,0,4.45-6.42,2.82,2.82,0,0,1,.36-2.59A2.64,2.64,0,0,1,42.12,36h.22a4.63,4.63,0,0,0,4.47-3.32A4.76,4.76,0,0,0,45,27.3,2.76,2.76,0,0,1,43.79,25,2.8,2.8,0,0,1,45,22.68a4.73,4.73,0,0,0,1.82-5.41,4.64,4.64,0,0,0-4.47-3.33h-.22a2.67,2.67,0,0,1-2.18-1.14,2.83,2.83,0,0,1-.36-2.6A4.8,4.8,0,0,0,35.13,3.8a4.55,4.55,0,0,0-2.86,1,2.6,2.6,0,0,1-1.63.58,2.7,2.7,0,0,1-2.6-2A4.61,4.61,0,0,0,23.52,0Zm.12,28.25a3.2,3.2,0,1,1,3.11-3.2,3.15,3.15,0,0,1-3.11,3.2Z"/>
        </g>
    </g>
</svg>
